<svg xmlns="http://www.w3.org/2000/svg" viewBox="0 0 78.94 40.32"><defs><style>.cls-1{fill:#f9f9f9;}</style></defs><g id="Layer_2" data-name="Layer 2"><g id="OBJECT"><path class="cls-1" d="M38,38.24,56.84,21.76a2.12,2.12,0,0,0,0-3.2L38,2.09A1.19,1.19,0,0,1,38.78,0H55.59A3.7,3.7,0,0,1,58,.92L78.22,18.56a2.14,2.14,0,0,1,0,3.2L58,39.41a3.69,3.69,0,0,1-2.44.91H38.78A1.18,1.18,0,0,1,38,38.24Z"></path><path class="cls-1" d="M26.87.77A2.23,2.23,0,1,0,30,.77,2.23,2.23,0,0,0,26.87.77Z"></path><path class="cls-1" d="M32.81,6.71a2.23,2.23,0,1,0,3.16,0A2.23,2.23,0,0,0,32.81,6.71Z"></path><path class="cls-1" d="M38.75,12.64a2.23,2.23,0,1,0,3.16,0A2.24,2.24,0,0,0,38.75,12.64Z"></path><path class="cls-1" d="M44.69,18.58a2.23,2.23,0,1,0,3.16,0A2.24,2.24,0,0,0,44.69,18.58Z"></path><path class="cls-1" d="M26.87,39.56a2.23,2.23,0,1,1,3.16,0A2.24,2.24,0,0,1,26.87,39.56Z"></path><path class="cls-1" d="M32.81,33.62a2.23,2.23,0,1,1,3.16,0A2.24,2.24,0,0,1,32.81,33.62Z"></path><path class="cls-1" d="M38.75,27.68a2.23,2.23,0,1,1,3.16,0A2.24,2.24,0,0,1,38.75,27.68Z"></path><path class="cls-1" d="M44.69,21.74a2.23,2.23,0,1,1,3.16,0A2.24,2.24,0,0,1,44.69,21.74Z"></path><path class="cls-1" d="M13.76.77a2.23,2.23,0,1,0,3.16,0A2.23,2.23,0,0,0,13.76.77Z"></path><path class="cls-1" d="M19.7,6.71a2.23,2.23,0,1,0,3.16,0A2.23,2.23,0,0,0,19.7,6.71Z"></path><path class="cls-1" d="M25.64,12.64a2.23,2.23,0,1,0,3.16,0A2.24,2.24,0,0,0,25.64,12.64Z"></path><path class="cls-1" d="M31.58,18.58a2.23,2.23,0,1,0,3.16,0A2.24,2.24,0,0,0,31.58,18.58Z"></path><path class="cls-1" d="M13.76,39.56a2.23,2.23,0,1,1,3.16,0A2.24,2.24,0,0,1,13.76,39.56Z"></path><path class="cls-1" d="M19.7,33.62a2.23,2.23,0,1,1,3.16,0A2.24,2.24,0,0,1,19.7,33.62Z"></path><path class="cls-1" d="M25.64,27.68a2.23,2.23,0,1,1,3.16,0A2.24,2.24,0,0,1,25.64,27.68Z"></path><path class="cls-1" d="M31.58,21.74a2.23,2.23,0,1,1,3.16,0A2.24,2.24,0,0,1,31.58,21.74Z"></path><path class="cls-1" d="M.65.77a2.23,2.23,0,1,0,3.16,0A2.23,2.23,0,0,0,.65.77Z"></path><path class="cls-1" d="M6.59,6.71a2.23,2.23,0,1,0,3.16,0A2.23,2.23,0,0,0,6.59,6.71Z"></path><path class="cls-1" d="M12.53,12.64a2.23,2.23,0,1,0,3.16,0A2.24,2.24,0,0,0,12.53,12.64Z"></path><path class="cls-1" d="M18.47,18.58a2.23,2.23,0,1,0,3.16,0A2.24,2.24,0,0,0,18.47,18.58Z"></path><path class="cls-1" d="M.65,39.56a2.23,2.23,0,1,1,3.16,0A2.24,2.24,0,0,1,.65,39.56Z"></path><path class="cls-1" d="M6.59,33.62a2.23,2.23,0,1,1,3.16,0A2.24,2.24,0,0,1,6.59,33.62Z"></path><path class="cls-1" d="M12.53,27.68a2.23,2.23,0,1,1,3.16,0A2.24,2.24,0,0,1,12.53,27.68Z"></path><path class="cls-1" d="M18.47,21.74a2.23,2.23,0,1,1,3.16,0A2.24,2.24,0,0,1,18.47,21.74Z"></path></g></g></svg>