<svg xmlns="http://www.w3.org/2000/svg" viewBox="0 0 48.78 42.69"><defs><style>.cls-1{fill:#444;}.cls-2{fill:#fc0000;}</style></defs><g id="Layer_2" data-name="Layer 2"><g id="Layer_1-2" data-name="Layer 1"><path class="cls-1" d="M38.88,32H37.35V30.49h1.53a8.39,8.39,0,0,0,8.38-8.38c0-4.35-2.95-7.63-6.86-7.63h-.76v-.76c0-3-1.6-6.1-6.1-6.1H32.33l-.22-.39a11.22,11.22,0,0,0-10-5.71A11.45,11.45,0,0,0,10.67,13v.76H9.91a8.39,8.39,0,1,0,0,16.77h1.52V32H9.91a9.91,9.91,0,0,1-.74-19.79A13,13,0,0,1,22.11,0,12.73,12.73,0,0,1,33.22,6.1h.32c4.38,0,7.3,2.68,7.6,6.89,4.41.38,7.64,4.17,7.64,9.12A9.91,9.91,0,0,1,38.88,32Z"></path><polygon class="cls-1" points="31.48 39.41 24.08 32.02 13.72 32.02 13.72 30.49 24.71 30.49 32.55 38.34 31.48 39.41"></polygon><path class="cls-2" d="M38.88,29H26.68V16.77h.76A11.45,11.45,0,0,1,38.88,28.2ZM28.2,27.44h9.12a9.92,9.92,0,0,0-9.12-9.12Z"></path><rect class="cls-1" x="23.63" y="16.77" width="1.52" height="1.52"></rect><rect class="cls-1" x="20.58" y="16.77" width="1.52" height="1.52"></rect><rect class="cls-1" x="17.53" y="16.77" width="1.52" height="1.52"></rect><path class="cls-1" d="M24.39,42.69a11.44,11.44,0,0,1,0-22.87h.76v1.52h-.76a9.91,9.91,0,1,0,9.91,9.91v-.76h1.53v.76A11.45,11.45,0,0,1,24.39,42.69Z"></path><rect class="cls-1" x="23.63" y="31.25" width="1.52" height="10.67"></rect></g></g></svg>