<svg xmlns="http://www.w3.org/2000/svg" viewBox="0 0 48.78 48.78"><defs><style>.cls-1{fill:#444;}.cls-2{fill:#fc0000;}</style></defs><g id="Layer_2" data-name="Layer 2"><g id="Layer_1-2" data-name="Layer 1"><rect class="cls-1" x="35.83" y="44.21" width="12.2" height="1.52"></rect><path class="cls-1" d="M45,48.78a.76.76,0,0,1-.54-.22.78.78,0,0,1,0-1.08L46.94,45l-2.51-2.51a.76.76,0,0,1,1.08-1.08l3.05,3a.76.76,0,0,1,0,1.08l-3.05,3.05A.75.75,0,0,1,45,48.78Z"></path><path class="cls-1" d="M27.44,7.62a.76.76,0,0,1-.54-.22l-3-3.05a.78.78,0,0,1,0-1.08l3-3A.78.78,0,0,1,28,.22.76.76,0,0,1,28,1.3L25.47,3.81,28,6.32A.76.76,0,0,1,28,7.4.75.75,0,0,1,27.44,7.62Z"></path><path class="cls-1" d="M24.39,45.74H0V44.21H24.39a19.82,19.82,0,0,0,0-39.64V3.05a21.35,21.35,0,1,1,0,42.69Z"></path><path class="cls-1" d="M13.33,42.65A21.35,21.35,0,0,1,20.5,3.4l.28,1.5a19.83,19.83,0,0,0-6.66,36.45Z"></path><path class="cls-1" d="M24.39,38.11a13.72,13.72,0,0,1-4.84-26.56L20.09,13a12.2,12.2,0,1,0,8.61,0l.53-1.43a13.72,13.72,0,0,1-4.84,26.56Z"></path><rect class="cls-1" x="22.11" y="10.67" width="4.57" height="1.52"></rect><rect class="cls-1" x="23.63" y="11.43" width="1.52" height="3.05"></rect><rect class="cls-1" x="13.34" y="12.48" width="1.52" height="3.23" transform="translate(-5.84 14.1) rotate(-45)"></rect><rect class="cls-1" x="33.07" y="13.34" width="3.23" height="1.52" transform="translate(0.19 28.65) rotate(-45)"></rect><path class="cls-1" d="M24.39,35.06A10.67,10.67,0,1,1,35.06,24.39,10.68,10.68,0,0,1,24.39,35.06Zm0-19.81a9.15,9.15,0,1,0,9.15,9.14A9.15,9.15,0,0,0,24.39,15.25Z"></path><rect class="cls-2" x="25.13" y="20.2" width="5.39" height="1.52" transform="translate(-6.67 25.81) rotate(-45)"></rect><rect class="cls-1" x="23.63" y="16.77" width="1.52" height="1.52"></rect><rect class="cls-1" x="16.77" y="23.63" width="1.52" height="1.52"></rect><rect class="cls-1" x="23.63" y="30.49" width="1.52" height="1.52"></rect><rect class="cls-1" x="30.49" y="23.63" width="1.52" height="1.52"></rect><path class="cls-1" d="M24.39,27.44a3.05,3.05,0,1,1,3.05-3.05A3.06,3.06,0,0,1,24.39,27.44Zm0-4.57a1.53,1.53,0,0,0,0,3.05,1.53,1.53,0,1,0,0-3.05Z"></path></g></g></svg>